<svg width="28" height="21" viewBox="0 0 28 21" fill="none" xmlns="http://www.w3.org/2000/svg">
<g id="Layer_1">
<path id="Vector" d="M1.74609 10.0511V19.4911C1.74609 19.8111 2.0146 20.0729 2.34277 20.0729H3.67036C3.99853 20.0729 4.26703 19.8111 4.26703 19.4911V18.1965C4.26703 17.8765 4.53554 17.6147 4.86371 17.6147H23.1517C23.4799 17.6147 23.7484 17.8765 23.7484 18.1965V19.4911C23.7484 19.8111 24.0169 20.0729 24.3451 20.0729H25.6727C26.0008 20.0729 26.2693 19.8111 26.2693 19.4911V10.0511C26.2693 9.00379 25.4042 8.16016 24.3301 8.16016H3.68528C2.61127 8.16016 1.74609 9.00379 1.74609 10.0511Z" stroke="#012539" stroke-miterlimit="10" stroke-linecap="round"/>
<path id="Vector_2" d="M26.2544 14.123H1.74609" stroke="#012539" stroke-miterlimit="10" stroke-linecap="round"/>
<path id="Vector_3" d="M5.9491 0.727539H22.0443C22.999 0.727539 23.7747 1.4839 23.7747 2.41481V8.17481H4.21875V2.41481C4.21875 1.4839 4.99442 0.727539 5.9491 0.727539Z" stroke="#012539" stroke-miterlimit="10" stroke-linecap="round"/>
<path id="Vector_4" d="M8.44273 3.72363H10.9189C11.9482 3.72363 12.7984 4.53818 12.7984 5.55636V8.16H6.57812V5.55636C6.57812 4.55272 7.41347 3.72363 8.45764 3.72363H8.44273Z" stroke="#012539" stroke-miterlimit="10" stroke-linecap="round"/>
<path id="Vector_5" d="M17.0631 3.72363H19.5393C20.5686 3.72363 21.4188 4.53818 21.4188 5.55636V8.16H15.1836V5.55636C15.1836 4.55272 16.0189 3.72363 17.0631 3.72363Z" stroke="#012539" stroke-miterlimit="10" stroke-linecap="round"/>
</g>
</svg>
