<svg width="25" height="29" viewBox="0 0 25 29" fill="none" xmlns="http://www.w3.org/2000/svg">
<g id="Layer_1" clip-path="url(#clip0_2380_13603)">
<path id="Vector" d="M18.6089 22.27H4.62891V26.8H18.6089V22.27Z" stroke="#012539" stroke-linecap="round" stroke-linejoin="round"/>
<g id="Group">
<path id="Vector_2" d="M6.75891 20.4797C7.93527 20.4797 8.88891 19.5261 8.88891 18.3497C8.88891 17.1734 7.93527 16.2197 6.75891 16.2197C5.58254 16.2197 4.62891 17.1734 4.62891 18.3497C4.62891 19.5261 5.58254 20.4797 6.75891 20.4797Z" stroke="#012539" stroke-linecap="round" stroke-linejoin="round"/>
<path id="Vector_3" d="M5.97656 18.3496H7.54656" stroke="#012539" stroke-linecap="round" stroke-linejoin="round"/>
<path id="Vector_4" d="M6.75781 19.1296V17.5596" stroke="#012539" stroke-linecap="round" stroke-linejoin="round"/>
</g>
<path id="Vector_5" d="M11.6595 19.49C12.2891 19.49 12.7995 18.9796 12.7995 18.35C12.7995 17.7204 12.2891 17.21 11.6595 17.21C11.0299 17.21 10.5195 17.7204 10.5195 18.35C10.5195 18.9796 11.0299 19.49 11.6595 19.49Z" stroke="#012539" stroke-linecap="round" stroke-linejoin="round"/>
<g id="Group_2">
<path id="Vector_6" d="M16.4816 20.4797C17.6579 20.4797 18.6116 19.5261 18.6116 18.3497C18.6116 17.1734 17.6579 16.2197 16.4816 16.2197C15.3052 16.2197 14.3516 17.1734 14.3516 18.3497C14.3516 19.5261 15.3052 20.4797 16.4816 20.4797Z" stroke="#012539" stroke-linecap="round" stroke-linejoin="round"/>
<path id="Vector_7" d="M15.6914 18.3496H17.2614" stroke="#012539" stroke-linecap="round" stroke-linejoin="round"/>
<path id="Vector_8" d="M16.4844 19.1296V17.5596" stroke="#012539" stroke-linecap="round" stroke-linejoin="round"/>
</g>
<path id="Vector_9" d="M11.6109 12.0303C12.9309 12.0303 14.0109 13.1003 14.0109 14.4303H9.21094C9.21094 13.1103 10.2809 12.0303 11.6109 12.0303Z" stroke="#012539" stroke-linecap="round" stroke-linejoin="round"/>
<path id="Vector_10" d="M12.3981 12.0302V8.74023H10.8281V12.0302" stroke="#012539" stroke-linecap="round" stroke-linejoin="round"/>
<path id="Vector_11" d="M20.4695 16.0702C20.4695 15.1802 19.7395 14.4502 18.8495 14.4502H4.38953C3.49953 14.4502 2.76953 15.1802 2.76953 16.0702V27.6202C2.76953 28.2602 3.28953 28.7802 3.92953 28.7802H19.2995C19.9395 28.7802 20.4595 28.2602 20.4595 27.6202V16.0702H20.4695Z" stroke="#012539" stroke-linecap="round" stroke-linejoin="round"/>
<path id="Vector_12" d="M6.62109 7.82027C8.04109 6.85027 9.76109 6.28027 11.6211 6.28027C13.4811 6.28027 15.1611 6.84027 16.5711 7.79027" stroke="#012539" stroke-linecap="round" stroke-linejoin="round"/>
<path id="Vector_13" d="M2.5 3.69C5 1.69 8.17 0.5 11.62 0.5C15.07 0.5 18.24 1.7 20.75 3.7" stroke="#012539" stroke-linecap="round" stroke-linejoin="round"/>
<path id="Vector_14" d="M4.80859 6.01C6.70859 4.59 9.06859 3.75 11.6186 3.75C14.1686 3.75 16.6086 4.62 18.5186 6.08" stroke="#012539" stroke-linecap="round" stroke-linejoin="round"/>
</g>
<defs>
<clipPath id="clip0_2380_13603">
<rect width="25" height="29" fill="white"/>
</clipPath>
</defs>
</svg>
