<svg width="34" height="18" viewBox="0 0 34 18" fill="none" xmlns="http://www.w3.org/2000/svg">
<g id="Layer_1" clip-path="url(#clip0_2380_13585)">
<g id="Group">
<path id="Vector" d="M28.5741 15.5602C28.1541 15.5402 27.7241 15.7002 27.3941 16.0202L26.0341 17.3802C25.3941 18.0202 24.3541 17.9902 23.7441 17.3202L22.6041 16.0702C21.9941 15.4002 20.9541 15.3702 20.3141 16.0102L18.9541 17.3702C18.3141 18.0102 17.2741 17.9802 16.6641 17.3102" stroke="#012539" stroke-miterlimit="10"/>
<path id="Vector_2" d="M0.0117188 15.5602C0.431719 15.5502 0.851719 15.7002 1.17172 16.0202L2.53172 17.3802C3.17172 18.0202 4.21172 17.9902 4.82172 17.3202L4.71172 17.4302L6.13172 16.0102C6.77172 15.3702 7.81172 15.4002 8.42172 16.0702L9.56172 17.3202C10.1717 17.9902 11.2117 18.0202 11.8517 17.3802L13.5317 15.7002C14.0017 15.2302 14.7617 15.2502 15.2117 15.7402L16.6417 17.3202" stroke="#012539" stroke-miterlimit="10"/>
</g>
<path id="Vector_3" d="M5.39875 16.6101C4.66875 16.1501 4.07875 15.4801 3.72875 14.6601L1.92875 10.5301C1.67875 9.96006 2.09875 9.31006 2.72875 9.31006H26.0687C26.6987 9.31006 27.1187 9.95006 26.8687 10.5301L25.0687 14.6601C24.6787 15.5601 24.0087 16.2801 23.1887 16.7301" stroke="#012539" stroke-linecap="round" stroke-linejoin="round"/>
<path id="Vector_4" d="M2.39062 11.5801H26.4106" stroke="#012539" stroke-miterlimit="10"/>
<g id="Group_2">
<path id="Vector_5" d="M22.8125 5.58L23.3325 6.1L25.5225 5.98L27.5725 3.93C27.9325 3.57 27.9325 2.98 27.5725 2.62L25.7225 0.77C25.3625 0.41 24.7725 0.41 24.4125 0.77L23.0125 2.17" stroke="#012539" stroke-miterlimit="10" stroke-linecap="round"/>
<path id="Vector_6" d="M20.1406 9.26984L23.3206 6.08984" stroke="#012539" stroke-miterlimit="10" stroke-linecap="round"/>
</g>
<g id="Group_3">
<path id="Vector_7" d="M16.6506 5.57006L17.7406 6.66006L19.9306 6.54006L21.9806 4.49006C22.3406 4.13006 22.3406 3.54006 21.9806 3.18006L20.1306 1.33006C19.7706 0.970059 19.1806 0.970059 18.8206 1.33006L16.7706 3.38006L16.6406 5.57006H16.6506Z" stroke="#012539" stroke-miterlimit="10"/>
<path id="Vector_8" d="M15.2031 9.1799L17.7331 6.6499" stroke="#012539" stroke-miterlimit="10"/>
<path id="Vector_9" d="M16.6619 5.58008L12.9219 9.31008" stroke="#012539" stroke-miterlimit="10"/>
</g>
<path id="Vector_10" d="M19.3592 7.91992L18.1992 9.06992" stroke="#012539" stroke-miterlimit="10" stroke-linecap="round"/>
</g>
<defs>
<clipPath id="clip0_2380_13585">
<rect width="34" height="18" fill="white"/>
</clipPath>
</defs>
</svg>
