<svg width="33" height="30" viewBox="0 0 33 30" fill="none" xmlns="http://www.w3.org/2000/svg">
<g id="Layer_1">
<path id="Vector" d="M26.5905 4.44023H25.5405C25.3005 4.44023 25.0705 4.35023 24.8905 4.17023L23.2805 2.56023C22.9205 2.20023 22.4105 1.99023 21.9005 1.99023H18.4805C17.9605 1.99023 17.4705 2.19023 17.1005 2.56023L14.8705 4.79023C14.6205 5.04023 14.4805 5.39023 14.4805 5.74023V8.99023C14.4805 9.73023 15.0805 10.3302 15.8205 10.3302H16.0905L15.6405 11.9402C15.5205 12.3602 15.3405 12.7502 15.0905 13.1002L9.57047 20.9502C8.99047 21.7802 8.68047 22.7502 8.68047 23.7602V27.3802H7.37047C4.95047 27.3802 2.98047 25.4102 2.98047 22.9902C2.98047 20.5702 4.95047 18.6002 7.37047 18.6002C7.65047 18.6002 7.87047 18.3802 7.87047 18.1002C7.87047 17.8202 7.65047 17.6002 7.37047 17.6002C4.40047 17.6002 1.98047 20.0202 1.98047 22.9902C1.98047 25.9602 4.40047 28.3802 7.37047 28.3802H24.4805C24.7605 28.3802 24.9805 28.1602 24.9805 27.8802C24.9805 27.6002 24.7605 27.3802 24.4805 27.3802H22.4505V10.4402C22.4505 10.0702 22.7505 9.76023 23.1305 9.76023H25.6105C26.1005 9.76023 26.5705 9.56023 26.9205 9.22023L27.8905 8.25023C28.2405 7.90023 28.4305 7.44023 28.4305 6.94023V6.29023C28.4305 5.27023 27.6005 4.44023 26.5805 4.44023H26.5905ZM16.9305 27.3902L17.3905 26.7702C18.4305 25.3502 18.5105 23.4502 17.5905 21.9502L15.9005 19.1902C15.7605 18.9502 15.4505 18.8802 15.2105 19.0202C14.9705 19.1602 14.9005 19.4702 15.0405 19.7102L16.7305 22.4702C17.4405 23.6302 17.3805 25.0902 16.5805 26.1802L15.6905 27.3902H9.70047V23.7702C9.70047 22.9702 9.94047 22.2002 10.4105 21.5402L15.9305 13.6902C16.2405 13.2402 16.4805 12.7502 16.6305 12.2202H21.4705V27.3802H16.9305V27.3902ZM27.4405 6.95023C27.4405 7.18023 27.3505 7.39023 27.1905 7.55023L26.2205 8.52023C26.0605 8.68023 25.8405 8.77023 25.6205 8.77023H23.1405C22.2205 8.77023 21.4605 9.52023 21.4605 10.4502V11.2302H16.9005L17.1505 10.3502H18.2705C19.0105 10.3502 19.6105 9.75023 19.6105 9.01023V5.79023C19.6105 5.51023 19.3905 5.29023 19.1105 5.29023C18.8305 5.29023 18.6105 5.51023 18.6105 5.79023V9.01023C18.6105 9.20023 18.4605 9.35023 18.2705 9.35023H15.8305C15.6405 9.35023 15.4905 9.20023 15.4905 9.01023V5.76023C15.4905 5.67023 15.5305 5.58023 15.5905 5.52023L17.8205 3.29023C18.0005 3.11023 18.2405 3.01023 18.4905 3.01023H21.9105C22.1605 3.01023 22.4005 3.11023 22.5805 3.29023L24.1905 4.90023C24.5505 5.26023 25.0305 5.46023 25.5405 5.46023H26.5905C27.0605 5.46023 27.4405 5.84023 27.4405 6.31023V6.96023V6.95023Z" fill="black"/>
<path id="Vector_2" d="M21.4712 4.2998C21.0912 4.2998 20.7812 4.6098 20.7812 4.9898C20.7812 5.3698 21.0912 5.6798 21.4712 5.6798C21.8512 5.6798 22.1612 5.3698 22.1612 4.9898C22.1612 4.6098 21.8512 4.2998 21.4712 4.2998Z" fill="black"/>
</g>
</svg>
