<svg width="28" height="29" viewBox="0 0 28 29" fill="none" xmlns="http://www.w3.org/2000/svg">
<g id="Layer_1" clip-path="url(#clip0_2380_13565)">
<path id="Vector" d="M13.0113 19.7598C17.1423 19.7598 20.4912 16.4109 20.4912 12.2798C20.4912 8.14871 17.1423 4.7998 13.0113 4.7998C8.88016 4.7998 5.53125 8.14871 5.53125 12.2798C5.53125 16.4109 8.88016 19.7598 13.0113 19.7598Z" stroke="#012539" stroke-linecap="round" stroke-linejoin="round"/>
<path id="Vector_2" d="M23.6792 12.28C23.6792 11.42 24.6892 10.46 24.5092 9.66C24.3292 8.86 22.9892 8.4 22.6292 7.66C22.2692 6.92 22.7592 5.59 22.2292 4.94C21.6992 4.29 20.3192 4.48 19.6592 3.95C18.9992 3.42 18.8892 2.03 18.1292 1.67C17.3692 1.31 16.2192 2.08 15.3892 1.89C14.5592 1.7 13.8692 0.5 13.0192 0.5C12.1692 0.5 11.4492 1.7 10.6492 1.89C9.84922 2.08 8.65922 1.31 7.90922 1.67C7.15922 2.03 7.02922 3.43 6.37922 3.95C5.72922 4.47 4.33922 4.28 3.80922 4.94C3.27922 5.6 3.77922 6.9 3.41922 7.66C3.05922 8.42 1.72922 8.83 1.53922 9.66C1.34922 10.49 2.36922 11.42 2.36922 12.28C2.36922 13.14 1.35922 14.1 1.53922 14.9C1.71922 15.7 3.05922 16.16 3.41922 16.9C3.77922 17.64 3.28922 18.97 3.81922 19.62C4.34922 20.27 5.72922 20.08 6.38922 20.61C7.04922 21.14 7.15922 22.53 7.91922 22.89C8.67922 23.25 9.82922 22.48 10.6592 22.67C11.4892 22.86 12.1792 24.06 13.0292 24.06C13.8792 24.06 14.5992 22.86 15.3992 22.67C16.1992 22.48 17.3892 23.25 18.1392 22.89C18.8892 22.53 19.0192 21.13 19.6692 20.61C20.3192 20.09 21.7092 20.28 22.2392 19.62C22.7692 18.96 22.2692 17.66 22.6292 16.9C22.9892 16.14 24.3192 15.73 24.5092 14.9C24.6992 14.07 23.6792 13.14 23.6792 12.28Z" stroke="#012539" stroke-linecap="round" stroke-linejoin="round"/>
<path id="Vector_3" d="M13.0092 8.16016L13.9592 11.0902L17.0892 11.0102L14.5492 13.1102L15.6092 16.4102L13.0192 13.9002L10.4292 16.4102L11.4892 13.1102L8.94916 11.0102L12.0792 11.0902L13.0292 8.16016M13.0292 7.16016C12.5992 7.16016 12.2092 7.44016 12.0792 7.85016L11.3592 10.0702L8.97916 10.0102C8.97916 10.0102 8.95916 10.0102 8.94916 10.0102C8.52916 10.0102 8.15916 10.2702 8.00916 10.6602C7.85916 11.0602 7.97916 11.5102 8.30916 11.7802L10.3292 13.4502L9.47916 16.1002C9.33916 16.5402 9.50916 17.0102 9.89916 17.2602C10.0592 17.3602 10.2492 17.4102 10.4292 17.4102C10.6792 17.4102 10.9292 17.3102 11.1292 17.1302L13.0292 15.2902L14.9292 17.1302C15.1192 17.3202 15.3692 17.4102 15.6292 17.4102C15.8092 17.4102 15.9892 17.3602 16.1592 17.2602C16.5492 17.0202 16.7192 16.5402 16.5792 16.1002L15.7292 13.4502L17.7492 11.7802C18.0792 11.5102 18.1992 11.0602 18.0492 10.6602C17.8992 10.2702 17.5292 10.0102 17.1092 10.0102C17.1092 10.0102 17.0892 10.0102 17.0792 10.0102L14.6992 10.0702L13.9792 7.85016C13.8492 7.44016 13.4592 7.16016 13.0292 7.16016Z" fill="#012539"/>
<g id="Group">
<path id="Vector_4" d="M11.2306 23.3698L8.57063 28.7998L7.14062 24.5198L2.89062 26.0198L5.69063 20.2998" stroke="#012539" stroke-linecap="round" stroke-linejoin="round"/>
<path id="Vector_5" d="M14.8008 23.3698L17.4608 28.7998L18.8908 24.5198L23.1408 26.0198L20.3408 20.2998" stroke="#012539" stroke-linecap="round" stroke-linejoin="round"/>
</g>
</g>
<defs>
<clipPath id="clip0_2380_13565">
<rect width="28" height="29" fill="white"/>
</clipPath>
</defs>
</svg>
