<svg width="34" height="17" viewBox="0 0 34 17" fill="none" xmlns="http://www.w3.org/2000/svg">
<g id="Layer_1">
<path id="Vector" d="M4.89062 9.92997L14.6506 13.87C17.2606 14.92 20.1206 14.64 22.5506 13.09L28.0006 9.60997C28.7406 9.13997 28.7006 7.84997 27.9406 7.43997L21.6206 4.02997C19.5206 2.89997 17.1506 2.66997 14.9206 3.37997L4.98063 6.55997" stroke="#012539" stroke-miterlimit="10"/>
<path id="Vector_2" d="M2.95031 7.92956C2.95031 7.92956 0.940313 9.11956 0.570312 11.6096C6.10031 12.2596 6.60031 3.93956 0.960312 4.20956C1.12031 6.71956 2.95031 7.92956 2.95031 7.92956Z" stroke="#012539" stroke-miterlimit="10" stroke-linecap="round"/>
<path id="Vector_3" d="M21.1483 3.82L18.6583 0.989995C18.0683 0.309995 17.1283 0.349995 16.5683 1.06L14.7383 3.41" stroke="#012539" stroke-miterlimit="10"/>
<path id="Vector_4" d="M18.0703 14.4898L18.4603 15.2798C19.0603 16.4998 20.5203 16.5698 21.2003 15.4098L22.5603 13.0898" stroke="#012539" stroke-miterlimit="10"/>
<path id="Vector_5" d="M12.6394 4.11992L11.8294 3.20992C11.2394 2.53992 10.2994 2.57992 9.74937 3.28992L7.85938 5.70992" stroke="#012539" stroke-miterlimit="10"/>
<path id="Vector_6" d="M6.92969 11.0195L7.88969 13.4095C8.27969 14.3795 9.24969 14.7995 10.0697 14.3295L12.4397 12.9695" stroke="#012539" stroke-miterlimit="10"/>
<path id="Vector_7" d="M21.3897 8.58984L17.6297 8.73984C17.2897 8.74984 17.1297 9.25984 17.3797 9.53984L18.2197 10.4798C18.8197 11.1498 19.6197 11.5098 20.4397 11.4798L21.1397 11.4498" stroke="#012539" stroke-miterlimit="10"/>
<path id="Vector_8" d="M24.8791 11.6698C23.7591 10.8898 23.0491 9.77977 23.0091 8.51977C22.9791 7.38977 23.4891 6.33977 24.3691 5.50977" stroke="#012539" stroke-miterlimit="10"/>
<path id="Vector_9" d="M25.0781 8.52031C25.3543 8.52031 25.5781 8.25168 25.5781 7.92031C25.5781 7.58894 25.3543 7.32031 25.0781 7.32031C24.802 7.32031 24.5781 7.58894 24.5781 7.92031C24.5781 8.25168 24.802 8.52031 25.0781 8.52031Z" fill="#012539"/>
</g>
</svg>
