<svg width="32" height="29" viewBox="0 0 32 29" fill="none" xmlns="http://www.w3.org/2000/svg">
<g id="Layer_1">
<g id="Group">
<path id="Vector" d="M10.5717 18.5177C9.46029 17.982 8.69922 16.8619 8.69922 15.5714V11.3468C8.69922 9.84933 9.93143 8.64404 11.4536 8.64404H15.5368C17.0589 8.64404 18.2912 9.84933 18.2912 11.3468V15.5714C18.2912 16.8132 17.5905 17.8846 16.5516 18.4446" stroke="#012539" stroke-linecap="round" stroke-linejoin="round"/>
<path id="Vector_2" d="M13.5086 6.7206C14.6762 6.7206 15.6227 5.76671 15.6227 4.59004C15.6227 3.41336 14.6762 2.45947 13.5086 2.45947C12.341 2.45947 11.3945 3.41336 11.3945 4.59004C11.3945 5.76671 12.341 6.7206 13.5086 6.7206Z" stroke="#012539" stroke-linecap="round" stroke-linejoin="round"/>
<g id="Group_2">
<path id="Vector_3" d="M10.7422 13.8916V27.1011" stroke="#012539" stroke-linecap="round" stroke-linejoin="round"/>
<path id="Vector_4" d="M16.2617 13.8916V27.1011" stroke="#012539" stroke-linecap="round" stroke-linejoin="round"/>
</g>
<path id="Vector_5" d="M13.5078 21.9268V27.101" stroke="#012539" stroke-linecap="round" stroke-linejoin="round"/>
<path id="Vector_6" d="M16.2622 27.0034C16.2622 27.7704 15.6461 28.3913 14.885 28.3913C14.1239 28.3913 13.5078 27.7704 13.5078 27.0034" stroke="#012539" stroke-linecap="round" stroke-linejoin="round"/>
<path id="Vector_7" d="M13.5044 27.0034C13.5044 27.7704 12.8883 28.3913 12.1272 28.3913C11.3661 28.3913 10.75 27.7704 10.75 27.0034" stroke="#012539" stroke-linecap="round" stroke-linejoin="round"/>
</g>
<g id="Group_3">
<g id="Group_4">
<path id="Vector_8" d="M18.8359 6.79346H23.6319C25.1541 6.79346 26.3863 7.99875 26.3863 9.49623V13.7208C26.3863 14.9626 25.6856 16.034 24.6467 16.594" stroke="#012539" stroke-linecap="round" stroke-linejoin="round"/>
<path id="Vector_9" d="M21.6024 4.87001C22.77 4.87001 23.7165 3.91613 23.7165 2.73945C23.7165 1.56277 22.77 0.608887 21.6024 0.608887C20.4348 0.608887 19.4883 1.56277 19.4883 2.73945C19.4883 3.91613 20.4348 4.87001 21.6024 4.87001Z" stroke="#012539" stroke-linecap="round" stroke-linejoin="round"/>
<g id="Group_5">
<path id="Vector_10" d="M18.8477 20.0884V25.2626" stroke="#012539" stroke-linecap="round" stroke-linejoin="round"/>
<path id="Vector_11" d="M24.3555 12.041V25.2627" stroke="#012539" stroke-linecap="round" stroke-linejoin="round"/>
</g>
<path id="Vector_12" d="M21.6016 20.0884V25.2626" stroke="#012539" stroke-linecap="round" stroke-linejoin="round"/>
<path id="Vector_13" d="M24.3559 25.1528C24.3559 25.9198 23.7398 26.5407 22.9787 26.5407C22.2177 26.5407 21.6016 25.9198 21.6016 25.1528" stroke="#012539" stroke-linecap="round" stroke-linejoin="round"/>
<path id="Vector_14" d="M21.602 25.1528C21.602 25.9198 20.9859 26.5407 20.2248 26.5407C19.4638 26.5407 18.8477 25.9198 18.8477 25.1528" stroke="#012539" stroke-linecap="round" stroke-linejoin="round"/>
</g>
<g id="Group_6">
<path id="Vector_15" d="M8.16752 6.79346H7.45477H3.37155C1.8494 6.79346 0.617188 7.99875 0.617188 9.49623V13.7208C0.617188 14.9626 1.31786 16.034 2.35678 16.594" stroke="#012539" stroke-linecap="round" stroke-linejoin="round"/>
<path id="Vector_16" d="M5.39925 4.87001C6.56683 4.87001 7.51334 3.91613 7.51334 2.73945C7.51334 1.56277 6.56683 0.608887 5.39925 0.608887C4.23167 0.608887 3.28516 1.56277 3.28516 2.73945C3.28516 3.91613 4.23167 4.87001 5.39925 4.87001Z" stroke="#012539" stroke-linecap="round" stroke-linejoin="round"/>
<g id="Group_7">
<path id="Vector_17" d="M8.16797 20.0884V25.2626" stroke="#012539" stroke-linecap="round" stroke-linejoin="round"/>
<path id="Vector_18" d="M2.64844 12.041V25.2627" stroke="#012539" stroke-linecap="round" stroke-linejoin="round"/>
</g>
<path id="Vector_19" d="M5.39844 20.0884V25.2626" stroke="#012539" stroke-linecap="round" stroke-linejoin="round"/>
<path id="Vector_20" d="M2.64844 25.1528C2.64844 25.9198 3.26454 26.5407 4.02562 26.5407C4.78669 26.5407 5.4028 25.9198 5.4028 25.1528" stroke="#012539" stroke-linecap="round" stroke-linejoin="round"/>
<path id="Vector_21" d="M5.39844 25.1528C5.39844 25.9198 6.01455 26.5407 6.77562 26.5407C7.53669 26.5407 8.1528 25.9198 8.1528 25.1528" stroke="#012539" stroke-linecap="round" stroke-linejoin="round"/>
</g>
</g>
</g>
</svg>
