<svg width="33" height="21" viewBox="0 0 33 21" fill="none" xmlns="http://www.w3.org/2000/svg">
<g id="Layer_1">
<g id="Group">
<path id="Vector" d="M19.8015 6.6991L23.4037 8.3282C23.6162 8.42939 23.8085 8.57105 23.9602 8.75318L26.2369 11.5662L29.4142 18.8819C29.6975 19.5295 29.2219 20.248 28.5237 20.248H19.1842H9.84475C9.14656 20.248 8.67099 19.5295 8.95431 18.8819L12.1316 11.5662L14.4083 8.75318C14.56 8.57105 14.7523 8.41927 14.9648 8.3282L18.567 6.6991C18.9616 6.51697 19.4271 6.51697 19.8217 6.6991H19.8015Z" stroke="#012539" stroke-miterlimit="10"/>
<path id="Vector_2" d="M11.6445 13.1245L17.1288 11.8192C18.4544 11.5056 19.8305 11.5056 21.156 11.8192L26.6403 13.1245" stroke="#012539" stroke-miterlimit="10"/>
<path id="Vector_3" d="M21.2779 11.8594V16.5342C21.2779 17.3234 20.6404 17.9508 19.8613 17.9508H18.4244C17.6352 17.9508 17.0078 17.3133 17.0078 16.5342V11.8594" stroke="#012539" stroke-miterlimit="10"/>
</g>
<g id="Group_2">
<path id="Vector_4" d="M12.2818 11.3525H9.69141" stroke="#012539" stroke-miterlimit="10"/>
<path id="Vector_5" d="M9.69211 11.3529H2.28527C1.72874 11.3529 1.35435 10.7862 1.57696 10.2702L4.0965 4.47219L5.89762 2.24609C6.01904 2.10443 6.17082 1.983 6.34284 1.90205L9.19629 0.616988C9.50997 0.475327 9.87424 0.475327 10.1879 0.616988L13.0414 1.90205C13.2134 1.983 13.3652 2.09431 13.4866 2.24609L15.2877 4.47219L16.6335 7.56849" stroke="#012539" stroke-miterlimit="10"/>
<path id="Vector_6" d="M3.73047 5.70655L8.07136 4.66433C9.1237 4.41137 10.2165 4.41137 11.2688 4.66433L15.6097 5.70655" stroke="#012539" stroke-miterlimit="10"/>
<path id="Vector_7" d="M11.3741 4.70508V8.41862C11.3741 9.03585 10.8682 9.54178 10.2509 9.54178H9.10754C8.49031 9.54178 7.98438 9.03585 7.98438 8.41862V4.70508" stroke="#012539" stroke-miterlimit="10"/>
</g>
</g>
</svg>
