<svg id="Layer_1" data-name="Layer 1" xmlns="http://www.w3.org/2000/svg" viewBox="0 0 1000 1000"><defs><style>.cls-1{fill:#fff;}</style></defs><title>Artboard 30 copy 53</title><polygon class="cls-1" points="199.09 521.49 185.33 528.47 171.45 521.49 157.55 528.48 143.65 521.49 129.76 528.48 115.86 521.49 101.96 528.48 88.06 521.49 74.17 528.48 60.77 521.74 60.77 533.47 74.17 540.2 88.06 533.22 101.96 540.2 115.86 533.22 129.76 540.2 143.65 533.22 157.55 540.2 171.45 533.22 185.35 540.21 199.13 533.22 213.15 540.2 226.53 533.47 226.53 521.74 213.13 528.48 199.09 521.49"/><polygon class="cls-1" points="171.63 547.74 157.82 554.74 143.94 547.76 130.04 554.75 116.14 547.76 102.25 554.75 88.06 547.62 88.06 557.78 102.25 564.91 116.14 557.92 130.04 564.91 143.94 557.92 157.84 564.91 171.58 557.95 185.03 564.93 199.13 557.84 199.13 547.67 185.09 554.73 171.63 547.74"/><polygon class="cls-1" points="157.55 579.42 143.65 572.43 129.76 579.42 116.14 572.58 116.14 581.17 129.76 588.02 143.65 581.03 157.55 588.02 171.58 580.97 171.58 572.37 157.55 579.42"/><path class="cls-1" d="M204.34,500a60.07,60.07,0,0,0-1.5-10.71l23.29-7.57-3.24-10-23.3,7.58a59.93,59.93,0,0,0-3.9-7.61L217,456.27l-6.16-8.48-21.28,15.47a61.6,61.6,0,0,0-6.05-6l16.31-22.46-8.48-6.15L175,451.05a60,60,0,0,0-7.62-3.89l8.87-27.31-10-3.23-8.86,27.29a60.6,60.6,0,0,0-8.46-1.33v-29H138.48v29a60.2,60.2,0,0,0-8.55,1.35L121,416.61l-10,3.25L120,447.19a61.45,61.45,0,0,0-7.62,3.91L96,428.62l-8.47,6.17,16.39,22.5a59.67,59.67,0,0,0-6,6.06L76.46,447.86l-6.15,8.48,21.37,15.49a60.25,60.25,0,0,0-3.89,7.64l-23.41-7.58-3.23,10,23.41,7.58A59.4,59.4,0,0,0,83.1,500H60.78v12.11H226.53V500Zm-60.62-47.18A50.28,50.28,0,0,1,193.84,500H93.6A50.27,50.27,0,0,1,143.72,452.83Z"/><path class="cls-1" d="M282,554.46V561H271.23V568h8.25v6.5h-8.25v13.56h-6.52V554.46Z"/><path class="cls-1" d="M293.75,574.52v13.56h-6.5V554.46h12.4A10,10,0,0,1,303,573.92l5.83,14.16h-7l-5.58-13.56Zm0-13.56V568h5.9a3.36,3.36,0,0,0,2.46-1,3.4,3.4,0,0,0,1.05-2.49,3.61,3.61,0,0,0-3.51-3.54Z"/><path class="cls-1" d="M333.41,554.46V561H322.63V568h8.27v6.5h-8.27v7.06h10.78v6.5H316.13V554.46Z"/><path class="cls-1" d="M362.39,554.46v33.62h-6.3l-9.39-18.71v18.71h-6.5V554.46h6.3l9.37,18.72V554.46Z"/><path class="cls-1" d="M377.29,561.77a4.92,4.92,0,0,0-1.48,3.58v11.84a5.09,5.09,0,0,0,5.06,5.08,5.26,5.26,0,0,0,4.69-3l5.62,3.25q-3.63,6.27-10.31,6.27a11.61,11.61,0,0,1-11.58-11.58V565.35a11.63,11.63,0,0,1,11.58-11.58q6.67,0,10.31,6.27l-5.62,3.25a5.28,5.28,0,0,0-4.69-3A4.9,4.9,0,0,0,377.29,561.77Z"/><path class="cls-1" d="M419.77,554.46v33.62h-6.5V574.52H403.19v13.56h-6.5V554.46h6.5V568h10.08V554.46Z"/><path class="cls-1" d="M446.12,561.77a4.92,4.92,0,0,0-1.48,3.58v11.84a5.09,5.09,0,0,0,5.07,5.08,5.26,5.26,0,0,0,4.68-3L460,582.5q-3.61,6.27-10.3,6.27a11.63,11.63,0,0,1-11.59-11.58V565.35a11.64,11.64,0,0,1,11.59-11.58q6.68,0,10.3,6.27l-5.62,3.25a5.28,5.28,0,0,0-4.68-3A4.92,4.92,0,0,0,446.12,561.77Z"/><path class="cls-1" d="M478.93,554.46l8.69,33.62h-6.7L479.6,583h-9.08l-1.32,5.11h-6.7l8.7-33.62Zm-6.7,22h5.67l-2.85-11Z"/><path class="cls-1" d="M499.47,574.52v13.56H493V554.46h12.4a10.05,10.05,0,0,1,10,10,10,10,0,0,1-6.63,9.42l5.83,14.16h-7L502,574.52Zm0-13.56V568h5.9a3.36,3.36,0,0,0,2.46-1,3.41,3.41,0,0,0,1.06-2.49,3.62,3.62,0,0,0-3.52-3.54Z"/><path class="cls-1" d="M528.36,574.52v13.56h-6.5V554.46h12.39a10,10,0,0,1,0,20.06Zm0-13.56V568h5.89a3.4,3.4,0,0,0,2.49-1,3.54,3.54,0,0,0-2.49-6Z"/><path class="cls-1" d="M579.09,554.46V561H568.33V568h8.25v6.5h-8.25v13.56h-6.52V554.46Z"/><path class="cls-1" d="M584.35,554.46h6.52v33.62h-6.52Z"/><path class="cls-1" d="M605.1,567.24a6.09,6.09,0,0,0,3.29.78,11.87,11.87,0,0,1,7.91,2.67,9.31,9.31,0,0,1,3.37,7.48,9.89,9.89,0,0,1-3.46,7.58,11.29,11.29,0,0,1-7.82,3q-6.69,0-10.3-6.25l2.82-1.64,2.8-1.63a5.26,5.26,0,0,0,4.68,3,5.06,5.06,0,0,0,3.23-1.14,3.64,3.64,0,0,0,1.52-3,3.16,3.16,0,0,0-1.47-2.86,6,6,0,0,0-3.28-.79,11.89,11.89,0,0,1-7.91-2.67,9.31,9.31,0,0,1-3.36-7.48,9.79,9.79,0,0,1,3.45-7.55,11.21,11.21,0,0,1,7.82-3.05q6.69,0,10.31,6.27l-5.64,3.25a5.24,5.24,0,0,0-4.67-3,5.07,5.07,0,0,0-3.22,1.12,3.65,3.65,0,0,0-1.55,3A3.17,3.17,0,0,0,605.1,567.24Z"/><path class="cls-1" d="M648.53,554.46v33.62H642V574.52H631.94v13.56h-6.5V554.46h6.5V568H642V554.46Z"/><path class="cls-1" d="M656.61,554.46h6.53v33.62h-6.53Z"/><path class="cls-1" d="M693.41,554.46v33.62h-6.3l-9.39-18.71v18.71h-6.5V554.46h6.3l9.37,18.72V554.46Z"/><path class="cls-1" d="M703.71,585.37a11.15,11.15,0,0,1-3.4-8.18V565.35a11.63,11.63,0,0,1,11.58-11.58q6.66,0,10.31,6.27l-2.82,1.62-2.83,1.63a5.24,5.24,0,0,0-4.66-3,5.09,5.09,0,0,0-5.08,5.06v11.84a5.12,5.12,0,0,0,5.08,5.08,7.76,7.76,0,0,0,1.3-.13,9.35,9.35,0,0,0,1.68-.43c1.39-.46,2.09-1.05,2.11-1.77v-5.42h-6.61V568H723.5v20.06h-2.91l-1.86-1a14,14,0,0,1-6.84,1.68A11.15,11.15,0,0,1,703.71,585.37Z"/><path class="cls-1" d="M765.16,554.46v33.62h-6.5V574.52H748.57v13.56h-6.5V554.46h6.5V568h10.09V554.46Z"/><path class="cls-1" d="M791.84,557.18a11.16,11.16,0,0,1,3.39,8.17v11.84a11.59,11.59,0,0,1-23.17,0V565.35a11.58,11.58,0,0,1,19.78-8.17Zm-11.79,4.59a4.9,4.9,0,0,0-1.5,3.58v11.84a5.09,5.09,0,0,0,10.18,0V565.35a5.09,5.09,0,0,0-8.68-3.58Z"/><path class="cls-1" d="M808.85,554.46v27.12h10.78v6.5H802.35V554.46Z"/><path class="cls-1" d="M824.42,554.46h6.52v33.62h-6.52Z"/><path class="cls-1" d="M850.3,554.46a11.32,11.32,0,0,1,11.27,11.28v11.45a10.94,10.94,0,0,1-10.91,10.89H839V554.46Zm-4.75,6.5v20.62h5.11a4.16,4.16,0,0,0,3.09-1.3,4.22,4.22,0,0,0,1.3-3.09V565.74A4.78,4.78,0,0,0,850.3,561Z"/><path class="cls-1" d="M881.29,554.46l8.7,33.62h-6.7L882,583h-9.07l-1.32,5.11h-6.7l8.69-33.62Zm-6.7,22h5.67l-2.84-11Z"/><path class="cls-1" d="M913.09,554.46l-8.9,19.12v14.5h-6.5v-14.5l-8.89-19.12H896l5,10.67,5-10.67Z"/><path class="cls-1" d="M924.4,567.24a6.1,6.1,0,0,0,3.3.78,11.89,11.89,0,0,1,7.91,2.67,9.33,9.33,0,0,1,3.36,7.48,9.88,9.88,0,0,1-3.45,7.58,11.32,11.32,0,0,1-7.82,3q-6.71,0-10.31-6.25l2.82-1.64,2.8-1.63a5.26,5.26,0,0,0,4.69,3,5,5,0,0,0,3.22-1.14,3.65,3.65,0,0,0,1.53-3,3.16,3.16,0,0,0-1.48-2.86,6,6,0,0,0-3.27-.79,11.87,11.87,0,0,1-7.91-2.67,9.32,9.32,0,0,1-3.37-7.48,9.8,9.8,0,0,1,3.46-7.55,11.18,11.18,0,0,1,7.82-3.05q6.67,0,10.31,6.27l-5.65,3.25a5.23,5.23,0,0,0-4.66-3,5.1,5.1,0,0,0-3.23,1.12,3.65,3.65,0,0,0-1.55,3A3.19,3.19,0,0,0,924.4,567.24Z"/><path class="cls-1" d="M301.76,412.79l19.61,75.82H306.26l-3-11.52H282.8l-3,11.52H264.71l19.61-75.82Zm-15.11,49.59h12.78L293,437.66Z"/><path class="cls-1" d="M382.87,412.79v75.82H368.66l-21.17-42.2v42.2H332.83V412.79H347L368.16,455V412.79Z"/><path class="cls-1" d="M397.86,437.36A26.22,26.22,0,0,1,424,411.23q15,0,23.25,14.15l-12.68,7.33q-4-6.76-10.57-6.77a11.45,11.45,0,0,0-11.47,11.42v26.69A11.56,11.56,0,0,0,424,475.52a11.58,11.58,0,0,0,11.48-11.47v-6H420.55V443.37h29.57v20.68a26.13,26.13,0,0,1-52.26,0Z"/><path class="cls-1" d="M477.2,412.79V474h24.31v14.66h-39V412.79Z"/><path class="cls-1" d="M511.7,412.79h14.71v75.82H511.7Z"/><path class="cls-1" d="M594.07,412.79v75.82h-14.2l-21.18-42.2v42.2H544V412.79h14.21L579.36,455V412.79Z"/><path class="cls-1" d="M609.07,437.36a26.22,26.22,0,0,1,26.13-26.13q15,0,23.25,14.15l-12.69,7.33q-4-6.76-10.56-6.77a11.45,11.45,0,0,0-11.47,11.42v26.69a11.47,11.47,0,0,0,22.94,0v-6H631.76V443.37h29.57v20.68a26.13,26.13,0,0,1-52.26,0Z"/><path class="cls-1" d="M713.71,412.79V474H738v14.66h-39V412.79Z"/><path class="cls-1" d="M748.21,412.79h14.71v75.82H748.21Z"/><path class="cls-1" d="M830.59,412.79v75.82H816.38l-21.18-42.2v42.2H780.55V412.79h14.2L815.88,455V412.79Z"/><path class="cls-1" d="M887.18,412.79v14.66H862.87v15.92h18.65V458H862.87V474h24.31v14.66h-39V412.79Z"/><path class="cls-1" d="M901.72,417A22.25,22.25,0,0,1,917,411.23q13.4,0,20.73,12.68l-12.69,7.33q-3-5.36-8-5.35a8.24,8.24,0,0,0-5,1.51,5.36,5.36,0,0,0-2.33,4.5q0,3.44,3.39,6.77a67.45,67.45,0,0,0,8,6c1.38.94,2.42,1.67,3.13,2.17,1.21.85,2.27,1.62,3.18,2.33a38.87,38.87,0,0,1,5.77,5.3A22.61,22.61,0,0,1,939,469.71a18.85,18.85,0,0,1-6.72,14.66A22.08,22.08,0,0,1,917,490.18q-13.44,0-20.82-12.74l12.68-7.33q3.09,5.42,8.14,5.41a8.14,8.14,0,0,0,5-1.52,5.39,5.39,0,0,0,2.32-4.54q0-3.39-3.44-6.73a56.89,56.89,0,0,0-7.93-6l-1.57-1.11-1.62-1.06c-1.18-.85-2.22-1.62-3.13-2.33a42.34,42.34,0,0,1-5.76-5.31A22.68,22.68,0,0,1,895,431.7,19.05,19.05,0,0,1,901.72,417Z"/><rect class="cls-1" x="264.49" y="515.17" width="674.74" height="12.1" rx="2.8"/></svg>