<svg width="25" height="26" viewBox="0 0 25 26" fill="none" xmlns="http://www.w3.org/2000/svg">
<g id="ARROW-LEFT">
<path id="Ellipse 104" d="M24.25 12.7472C24.25 19.3202 18.9816 24.6346 12.5 24.6346C6.01836 24.6346 0.75 19.3202 0.75 12.7472C0.75 6.17427 6.01836 0.859863 12.5 0.859863C18.9816 0.859863 24.25 6.17427 24.25 12.7472Z" stroke="#1898D8" stroke-width="1.5"/>
<path id="Arrow 1" d="M18 14.0029C18.4142 14.0029 18.75 13.6671 18.75 13.2529C18.75 12.8387 18.4142 12.5029 18 12.5029L18 14.0029ZM6.46967 12.7226C6.17678 13.0155 6.17678 13.4904 6.46967 13.7833L11.2426 18.5562C11.5355 18.8491 12.0104 18.8491 12.3033 18.5562C12.5962 18.2633 12.5962 17.7885 12.3033 17.4956L8.06066 13.2529L12.3033 9.01029C12.5962 8.7174 12.5962 8.24252 12.3033 7.94963C12.0104 7.65673 11.5355 7.65673 11.2426 7.94963L6.46967 12.7226ZM18 12.5029L7 12.5029L7 14.0029L18 14.0029L18 12.5029Z" fill="#1898D8"/>
</g>
</svg>
