<svg width="25" height="26" viewBox="0 0 25 26" fill="none" xmlns="http://www.w3.org/2000/svg">
<g id="ARROW-RIGHT">
<path id="Ellipse 104" d="M0.750001 12.7474C0.750002 6.17444 6.01836 0.860039 12.5 0.86004C18.9816 0.86004 24.25 6.17445 24.25 12.7474C24.25 19.3204 18.9816 24.6348 12.5 24.6348C6.01836 24.6348 0.750001 19.3204 0.750001 12.7474Z" stroke="#1898D8" stroke-width="1.5"/>
<path id="Arrow 1" d="M7 12.5029C6.58579 12.5029 6.25 12.8387 6.25 13.2529C6.25 13.6671 6.58579 14.0029 7 14.0029L7 12.5029ZM18.5303 13.7833C18.8232 13.4904 18.8232 13.0155 18.5303 12.7226L13.7574 7.94963C13.4645 7.65674 12.9896 7.65674 12.6967 7.94963C12.4038 8.24252 12.4038 8.7174 12.6967 9.01029L16.9393 13.2529L12.6967 17.4956C12.4038 17.7885 12.4038 18.2633 12.6967 18.5562C12.9896 18.8491 13.4645 18.8491 13.7574 18.5562L18.5303 13.7833ZM7 14.0029L18 14.0029L18 12.5029L7 12.5029L7 14.0029Z" fill="#1898D8"/>
</g>
</svg>
