<svg width="29" height="29" viewBox="0 0 29 29" fill="none" xmlns="http://www.w3.org/2000/svg">
<g id="ICO_ARROW-LEFT" clip-path="url(#clip0_2318_25056)">
<path id="Vector" d="M15 0C7.27126 0 1 6.41557 1 14.3222C1 22.2287 7.27126 28.6443 15 28.6443C22.7287 28.6443 29 22.2287 29 14.3222C29 6.41557 22.739 0 15 0ZM20.1012 15.3617L12.9677 22.6593C12.6701 22.9638 12.2698 23.1213 11.8798 23.1213C11.4897 23.1213 11.0894 22.9638 10.7918 22.6593C10.1862 22.0397 10.1862 21.0422 10.7918 20.4332L16.827 14.2592L10.9355 8.23209C10.3299 7.61258 10.3299 6.61507 10.9355 6.00607C11.5411 5.39706 12.5161 5.38656 13.1114 6.00607L20.0909 13.1461C20.6965 13.7657 20.6965 14.7632 20.0909 15.3722L20.1012 15.3617Z" fill="white" fill-opacity="0.4"/>
</g>
<defs>
<clipPath id="clip0_2318_25056">
<rect width="29" height="29" fill="white"/>
</clipPath>
</defs>
</svg>
