<svg width="29" height="29" viewBox="0 0 29 29" fill="none" xmlns="http://www.w3.org/2000/svg">
<g id="ICO_ARROW-LEFT" clip-path="url(#clip0_2318_25053)">
<path id="Vector" d="M14 29C21.7287 29 28 22.5844 28 14.6778C28 6.77125 21.7287 0.355682 14 0.355681C6.27126 0.35568 1.9433e-06 6.77125 1.25208e-06 14.6778C5.60867e-07 22.5844 6.261 29 14 29ZM8.89883 13.6383L16.0323 6.34075C16.3299 6.03624 16.7302 5.87874 17.1202 5.87874C17.5103 5.87874 17.9106 6.03624 18.2082 6.34075C18.8138 6.96026 18.8138 7.95777 18.2082 8.56677L12.173 14.7408L18.0645 20.7679C18.6701 21.3874 18.6701 22.3849 18.0645 22.9939C17.4589 23.6029 16.4839 23.6134 15.8886 22.9939L8.90909 15.8539C8.30352 15.2343 8.30352 14.2368 8.90909 13.6278L8.89883 13.6383Z" fill="white" fill-opacity="0.4"/>
</g>
<defs>
<clipPath id="clip0_2318_25053">
<rect width="29" height="29" fill="white" transform="translate(29 29) rotate(-180)"/>
</clipPath>
</defs>
</svg>
