<svg width="30" height="17" viewBox="0 0 30 17" fill="none" xmlns="http://www.w3.org/2000/svg">
<g id="Layer_1" clip-path="url(#clip0_1916_7214)">
<path id="Vector" d="M5.125 9.92997L14.885 13.87C17.495 14.92 20.355 14.64 22.785 13.09L28.235 9.60997C28.975 9.13997 28.935 7.84997 28.175 7.43997L21.855 4.02997C19.755 2.89997 17.385 2.66997 15.155 3.37997L5.215 6.55997" stroke="#4CAE51" stroke-miterlimit="10"/>
<path id="Vector_2" d="M3.18469 7.93005C3.18469 7.93005 1.17469 9.12005 0.804688 11.61C6.33469 12.26 6.83469 3.94005 1.19469 4.21005C1.35469 6.72005 3.18469 7.93005 3.18469 7.93005Z" stroke="#4CAE51" stroke-miterlimit="10" stroke-linecap="round"/>
<path id="Vector_3" d="M21.3866 3.82L18.8966 0.989995C18.3066 0.309995 17.3666 0.349995 16.8066 1.06L14.9766 3.41" stroke="#4CAE51" stroke-miterlimit="10"/>
<path id="Vector_4" d="M18.3047 14.4898L18.6947 15.2798C19.2947 16.4998 20.7547 16.5698 21.4347 15.4098L22.7947 13.0898" stroke="#4CAE51" stroke-miterlimit="10"/>
<path id="Vector_5" d="M12.8738 4.11992L12.0637 3.20992C11.4737 2.53992 10.5337 2.57992 9.98375 3.28992L8.09375 5.70992" stroke="#4CAE51" stroke-miterlimit="10"/>
<path id="Vector_6" d="M7.16406 11.02L8.12406 13.41C8.51406 14.38 9.48406 14.8 10.3041 14.33L12.6741 12.97" stroke="#4CAE51" stroke-miterlimit="10"/>
<path id="Vector_7" d="M21.6241 8.58984L17.8641 8.73984C17.5241 8.74984 17.3641 9.25984 17.6141 9.53984L18.4541 10.4798C19.0541 11.1498 19.8541 11.5098 20.6741 11.4798L21.3741 11.4498" stroke="#4CAE51" stroke-miterlimit="10"/>
<path id="Vector_8" d="M25.1134 11.6698C23.9934 10.8898 23.2834 9.77977 23.2434 8.51977C23.2134 7.38977 23.7234 6.33977 24.6034 5.50977" stroke="#4CAE51" stroke-miterlimit="10"/>
<path id="Vector_9" d="M25.3125 8.51982C25.5886 8.51982 25.8125 8.25119 25.8125 7.91982C25.8125 7.58845 25.5886 7.31982 25.3125 7.31982C25.0364 7.31982 24.8125 7.58845 24.8125 7.91982C24.8125 8.25119 25.0364 8.51982 25.3125 8.51982Z" fill="#4CAE51"/>
</g>
<defs>
<clipPath id="clip0_1916_7214">
<rect width="29.04" height="16.74" fill="white" transform="translate(0.332031)"/>
</clipPath>
</defs>
</svg>
