<svg id="Layer_1" data-name="Layer 1" xmlns="http://www.w3.org/2000/svg" viewBox="0 0 1000 1000"><defs><style>.cls-1{fill:#012530;}</style></defs><title>Artboard 30 copy 46</title><polygon class="cls-1" points="741.26 590.11 681.39 620.49 620.96 590.11 560.48 620.51 500 590.11 439.52 620.51 379.04 590.11 318.56 620.51 258.09 590.11 197.61 620.51 139.32 591.22 139.32 642.25 197.61 671.55 258.09 641.15 318.56 671.55 379.04 641.15 439.52 671.55 500 641.15 560.48 671.55 620.96 641.15 681.48 671.57 741.45 641.15 802.44 671.52 860.68 642.25 860.68 591.22 802.35 620.53 741.26 590.11"/><polygon class="cls-1" points="621.74 704.35 561.67 734.82 501.24 704.44 440.76 734.84 380.28 704.44 319.8 734.84 258.09 703.82 258.09 748.05 319.8 779.08 380.28 748.67 440.76 779.08 501.24 748.67 561.76 779.1 621.53 748.77 680.05 779.15 741.45 748.28 741.45 704.05 680.35 734.77 621.74 704.35"/><polygon class="cls-1" points="560.48 842.21 500 811.81 439.52 842.21 380.28 812.43 380.28 849.86 439.52 879.64 500 849.24 560.48 879.64 621.54 848.95 621.53 811.52 560.48 842.21"/><path class="cls-1" d="M764.11,496.64A263.1,263.1,0,0,0,757.6,450l101.32-32.95-14.1-43.36-101.38,33a263.61,263.61,0,0,0-17-33.13L819,306.28,792.21,269.4,699.6,336.71a266.6,266.6,0,0,0-26.31-26.3l71-97.73-36.89-26.79-71,97.69a262.6,262.6,0,0,0-33.16-17l38.6-118.82-43.37-14.09L559.9,252.5a262.49,262.49,0,0,0-36.82-5.79V120.36h-45.6V246.71a263.18,263.18,0,0,0-37.19,5.88l-38.81-118.9-43.35,14.15L397,266.77a264.61,264.61,0,0,0-33.18,17L292.49,186,255.63,212.8,327,310.7a266.63,266.63,0,0,0-26.33,26.39l-93-67.43-26.76,36.93,93,67.41a264.9,264.9,0,0,0-16.95,33.24L155,374.27l-14,43.38,101.87,33a263.08,263.08,0,0,0-6.37,46H139.32v52.68H860.68V496.64ZM500.28,291.31c116.07,0,211.26,91,218.12,205.33H282.16C289,382.27,384.21,291.31,500.28,291.31Z"/></svg>