<svg width="28" height="29" viewBox="0 0 28 29" fill="none" xmlns="http://www.w3.org/2000/svg">
<g id="Layer_1" clip-path="url(#clip0_1916_7182)">
<g id="Group">
<path id="Vector" d="M10.8412 18.5172C9.72982 17.9815 8.96875 16.8614 8.96875 15.5709V11.3463C8.96875 9.84884 10.201 8.64355 11.7231 8.64355H15.8063C17.3285 8.64355 18.5607 9.84884 18.5607 11.3463V15.5709C18.5607 16.8127 17.86 17.8841 16.8211 18.4441" stroke="#4CAE51" stroke-linecap="round" stroke-linejoin="round"/>
<path id="Vector_2" d="M13.7782 6.72011C14.9457 6.72011 15.8923 5.76622 15.8923 4.58955C15.8923 3.41287 14.9457 2.45898 13.7782 2.45898C12.6106 2.45898 11.6641 3.41287 11.6641 4.58955C11.6641 5.76622 12.6106 6.72011 13.7782 6.72011Z" stroke="#4CAE51" stroke-linecap="round" stroke-linejoin="round"/>
<g id="Group_2">
<path id="Vector_3" d="M11.0117 13.8911V27.1006" stroke="#4CAE51" stroke-linecap="round" stroke-linejoin="round"/>
<path id="Vector_4" d="M16.5312 13.8911V27.1006" stroke="#4CAE51" stroke-linecap="round" stroke-linejoin="round"/>
</g>
<path id="Vector_5" d="M13.7773 21.9263V27.1005" stroke="#4CAE51" stroke-linecap="round" stroke-linejoin="round"/>
<path id="Vector_6" d="M16.5317 27.0029C16.5317 27.7699 15.9156 28.3908 15.1545 28.3908C14.3935 28.3908 13.7773 27.7699 13.7773 27.0029" stroke="#4CAE51" stroke-linecap="round" stroke-linejoin="round"/>
<path id="Vector_7" d="M13.7778 27.0029C13.7778 27.7699 13.1617 28.3908 12.4006 28.3908C11.6395 28.3908 11.0234 27.7699 11.0234 27.0029" stroke="#4CAE51" stroke-linecap="round" stroke-linejoin="round"/>
</g>
<g id="Group_3">
<g id="Group_4">
<path id="Vector_8" d="M19.1094 6.79346H23.9053C25.4275 6.79346 26.6597 7.99875 26.6597 9.49623V13.7208C26.6597 14.9626 25.959 16.034 24.9201 16.594" stroke="#4CAE51" stroke-linecap="round" stroke-linejoin="round"/>
<path id="Vector_9" d="M21.8758 4.87001C23.0434 4.87001 23.9899 3.91613 23.9899 2.73945C23.9899 1.56277 23.0434 0.608887 21.8758 0.608887C20.7082 0.608887 19.7617 1.56277 19.7617 2.73945C19.7617 3.91613 20.7082 4.87001 21.8758 4.87001Z" stroke="#4CAE51" stroke-linecap="round" stroke-linejoin="round"/>
<g id="Group_5">
<path id="Vector_10" d="M19.1211 20.0884V25.2626" stroke="#4CAE51" stroke-linecap="round" stroke-linejoin="round"/>
<path id="Vector_11" d="M24.6289 12.041V25.2627" stroke="#4CAE51" stroke-linecap="round" stroke-linejoin="round"/>
</g>
<path id="Vector_12" d="M21.875 20.0884V25.2626" stroke="#4CAE51" stroke-linecap="round" stroke-linejoin="round"/>
<path id="Vector_13" d="M24.6294 25.1528C24.6294 25.9198 24.0133 26.5407 23.2522 26.5407C22.4911 26.5407 21.875 25.9198 21.875 25.1528" stroke="#4CAE51" stroke-linecap="round" stroke-linejoin="round"/>
<path id="Vector_14" d="M21.8755 25.1528C21.8755 25.9198 21.2593 26.5407 20.4983 26.5407C19.7372 26.5407 19.1211 25.9198 19.1211 25.1528" stroke="#4CAE51" stroke-linecap="round" stroke-linejoin="round"/>
</g>
<g id="Group_6">
<path id="Vector_15" d="M8.44096 6.79346H7.72821H3.64499C2.12284 6.79346 0.890625 7.99875 0.890625 9.49623V13.7208C0.890625 14.9626 1.5913 16.034 2.63022 16.594" stroke="#4CAE51" stroke-linecap="round" stroke-linejoin="round"/>
<path id="Vector_16" d="M5.67269 4.87001C6.84027 4.87001 7.78678 3.91613 7.78678 2.73945C7.78678 1.56277 6.84027 0.608887 5.67269 0.608887C4.50511 0.608887 3.55859 1.56277 3.55859 2.73945C3.55859 3.91613 4.50511 4.87001 5.67269 4.87001Z" stroke="#4CAE51" stroke-linecap="round" stroke-linejoin="round"/>
<g id="Group_7">
<path id="Vector_17" d="M8.44531 20.0884V25.2626" stroke="#4CAE51" stroke-linecap="round" stroke-linejoin="round"/>
<path id="Vector_18" d="M2.92188 12.041V25.2627" stroke="#4CAE51" stroke-linecap="round" stroke-linejoin="round"/>
</g>
<path id="Vector_19" d="M5.67578 20.0884V25.2626" stroke="#4CAE51" stroke-linecap="round" stroke-linejoin="round"/>
<path id="Vector_20" d="M2.92188 25.1528C2.92188 25.9198 3.53798 26.5407 4.29906 26.5407C5.06013 26.5407 5.67624 25.9198 5.67624 25.1528" stroke="#4CAE51" stroke-linecap="round" stroke-linejoin="round"/>
<path id="Vector_21" d="M5.67578 25.1528C5.67578 25.9198 6.29189 26.5407 7.05296 26.5407C7.81404 26.5407 8.43014 25.9198 8.43014 25.1528" stroke="#4CAE51" stroke-linecap="round" stroke-linejoin="round"/>
</g>
</g>
</g>
<defs>
<clipPath id="clip0_1916_7182">
<rect width="27" height="29" fill="white" transform="translate(0.371094)"/>
</clipPath>
</defs>
</svg>
