<svg id="Layer_1" data-name="Layer 1" xmlns="http://www.w3.org/2000/svg" viewBox="0 0 1000 1000"><defs><style>.cls-1{fill:#012530;}</style></defs><title>Artboard 30 copy 42</title><path class="cls-1" d="M159.69,557.94v6.92H148.25v7.51H157v6.91h-8.77v14.43h-6.94V557.94Z"/><path class="cls-1" d="M172.2,579.28v14.43h-6.91V557.94h13.19a10.66,10.66,0,0,1,8.7,16.81,10.43,10.43,0,0,1-5.1,3.89l6.19,15.07h-7.48l-5.94-14.43Zm0-14.42v7.51h6.28a3.59,3.59,0,0,0,2.62-1.1,3.65,3.65,0,0,0,1.12-2.64A3.59,3.59,0,0,0,181.1,566a3.53,3.53,0,0,0-2.62-1.12Z"/><path class="cls-1" d="M214.4,557.94v6.92H202.93v7.51h8.8v6.91h-8.8v7.51H214.4v6.92H196V557.94Z"/><path class="cls-1" d="M245.23,557.94v35.77h-6.7l-10-19.91v19.91h-6.92V557.94h6.7l10,19.91V557.94Z"/><path class="cls-1" d="M261.08,565.72a5.22,5.22,0,0,0-1.57,3.81v12.59a5.41,5.41,0,0,0,5.38,5.41q3.14,0,5-3.22l6,3.46q-3.86,6.68-11,6.68a12.38,12.38,0,0,1-12.32-12.33V569.53a12.38,12.38,0,0,1,12.32-12.33q7.11,0,11,6.68l-6,3.46a5.61,5.61,0,0,0-5-3.2A5.24,5.24,0,0,0,261.08,565.72Z"/><path class="cls-1" d="M306.28,557.94v35.77h-6.91V579.28H288.64v14.43h-6.92V557.94h6.92v14.43h10.73V557.94Z"/><path class="cls-1" d="M334.31,565.72a5.22,5.22,0,0,0-1.57,3.81v12.59a5.41,5.41,0,0,0,5.39,5.41q3.12,0,5-3.22l6,3.46q-3.85,6.68-11,6.68a12.38,12.38,0,0,1-12.33-12.33V569.53a12.38,12.38,0,0,1,12.33-12.33q7.1,0,11,6.68l-6,3.46a5.61,5.61,0,0,0-5-3.2A5.27,5.27,0,0,0,334.31,565.72Z"/><path class="cls-1" d="M369.21,557.94l9.26,35.77h-7.13l-1.41-5.44h-9.66l-1.4,5.44h-7.13L361,557.94Zm-7.12,23.39h6l-3-11.66Z"/><path class="cls-1" d="M391.07,579.28v14.43h-6.91V557.94h13.19a10.66,10.66,0,0,1,8.7,16.81,10.43,10.43,0,0,1-5.1,3.89l6.19,15.07h-7.48l-5.94-14.43Zm0-14.42v7.51h6.28a3.59,3.59,0,0,0,2.62-1.1,3.65,3.65,0,0,0,1.12-2.64A3.59,3.59,0,0,0,400,566a3.53,3.53,0,0,0-2.62-1.12Z"/><path class="cls-1" d="M421.8,579.28v14.43h-6.91V557.94h13.18a10.67,10.67,0,1,1,0,21.34Zm0-14.42v7.51h6.27a3.76,3.76,0,0,0,0-7.51Z"/><path class="cls-1" d="M475.78,557.94v6.92H464.33v7.51h8.78v6.91h-8.78v14.43h-6.94V557.94Z"/><path class="cls-1" d="M481.38,557.94h6.94v35.77h-6.94Z"/><path class="cls-1" d="M503.45,571.53a6.42,6.42,0,0,0,3.51.84,12.59,12.59,0,0,1,8.41,2.84,9.89,9.89,0,0,1,3.58,8,10.53,10.53,0,0,1-3.67,8.06,12,12,0,0,1-8.32,3.22q-7.14,0-11-6.66l3-1.74,3-1.74q1.86,3.23,5,3.22a5.36,5.36,0,0,0,3.43-1.21,3.9,3.9,0,0,0,1.62-3.15,3.35,3.35,0,0,0-1.57-3,6.4,6.4,0,0,0-3.48-.84,12.66,12.66,0,0,1-8.42-2.83,10,10,0,0,1-3.58-8,10.43,10.43,0,0,1,3.68-8A11.94,11.94,0,0,1,507,557.2q7.1,0,11,6.68l-6,3.46a5.57,5.57,0,0,0-5-3.2,5.42,5.42,0,0,0-3.44,1.2,3.86,3.86,0,0,0-1.64,3.14A3.35,3.35,0,0,0,503.45,571.53Z"/><path class="cls-1" d="M549.65,557.94v35.77h-6.91V579.28H532v14.43H525.1V557.94H532v14.43h10.73V557.94Z"/><path class="cls-1" d="M558.26,557.94h6.94v35.77h-6.94Z"/><path class="cls-1" d="M597.4,557.94v35.77h-6.7l-10-19.91v19.91H573.8V557.94h6.7l10,19.91V557.94Z"/><path class="cls-1" d="M608.37,590.82a11.84,11.84,0,0,1-3.63-8.7V569.53a12.39,12.39,0,0,1,12.33-12.33q7.08,0,11,6.68l-3,1.72-3,1.74q-1.86-3.2-5-3.2a5.27,5.27,0,0,0-3.82,1.58,5.2,5.2,0,0,0-1.59,3.81v12.59a5.45,5.45,0,0,0,5.41,5.41,8.91,8.91,0,0,0,1.38-.14,10.88,10.88,0,0,0,1.79-.45c1.48-.5,2.23-1.12,2.24-1.89v-5.77h-7v-6.91h14v21.34h-3.1l-2-1.05a14.92,14.92,0,0,1-7.27,1.79A11.84,11.84,0,0,1,608.37,590.82Z"/><path class="cls-1" d="M673.74,557.94v35.77h-6.92V579.28H656.09v14.43h-6.91V557.94h6.91v14.43h10.73V557.94Z"/><path class="cls-1" d="M702.13,560.83a11.92,11.92,0,0,1,3.6,8.7v12.59a12.33,12.33,0,0,1-24.65,0V569.53a12.32,12.32,0,0,1,21-8.7Zm-12.54,4.89a5.17,5.17,0,0,0-1.6,3.81v12.59a5.41,5.41,0,0,0,10.82,0V569.53a5.4,5.4,0,0,0-9.22-3.81Z"/><path class="cls-1" d="M720.22,557.94v28.85h11.47v6.92H713.31V557.94Z"/><path class="cls-1" d="M736.79,557.94h6.94v35.77h-6.94Z"/><path class="cls-1" d="M764.32,557.94a12.05,12.05,0,0,1,12,12v12.18a11.64,11.64,0,0,1-11.61,11.59H752.33V557.94Zm-5.05,6.92v21.93h5.44a4.71,4.71,0,0,0,4.67-4.67V569.94a5.09,5.09,0,0,0-5.06-5.08Z"/><path class="cls-1" d="M797.29,557.94l9.26,35.77h-7.13L798,588.27h-9.66l-1.4,5.44h-7.13l9.25-35.77Zm-7.12,23.39h6l-3-11.66Z"/><path class="cls-1" d="M831.12,557.94l-9.46,20.34v15.43h-6.91V578.28l-9.47-20.34h7.63l5.29,11.35,5.3-11.35Z"/><path class="cls-1" d="M843.16,571.53a6.42,6.42,0,0,0,3.51.84,12.61,12.61,0,0,1,8.41,2.84,9.89,9.89,0,0,1,3.58,8,10.53,10.53,0,0,1-3.67,8.06,12,12,0,0,1-8.32,3.22q-7.14,0-11-6.66l3-1.74,3-1.74q1.86,3.23,5,3.22a5.36,5.36,0,0,0,3.43-1.21,3.9,3.9,0,0,0,1.62-3.15,3.37,3.37,0,0,0-1.57-3,6.4,6.4,0,0,0-3.48-.84,12.66,12.66,0,0,1-8.42-2.83,10,10,0,0,1-3.58-8,10.46,10.46,0,0,1,3.67-8,12,12,0,0,1,8.33-3.25q7.1,0,11,6.68l-6,3.46a5.54,5.54,0,0,0-5-3.2,5.42,5.42,0,0,0-3.44,1.2,3.86,3.86,0,0,0-1.64,3.14A3.35,3.35,0,0,0,843.16,571.53Z"/><path class="cls-1" d="M180.72,407.22l20.87,80.66H185.51l-3.17-12.26H160.56l-3.17,12.26H141.31l20.86-80.66ZM164.65,460h13.6l-6.83-26.3Z"/><path class="cls-1" d="M267,407.22v80.66H251.9L229.37,443v44.9H213.78V407.22h15.11l22.48,44.9v-44.9Z"/><path class="cls-1" d="M283,433.36a27.91,27.91,0,0,1,27.8-27.81q16,0,24.74,15.06l-13.5,7.8q-4.25-7.2-11.24-7.21a12.22,12.22,0,0,0-12.21,12.16v28.39A12.33,12.33,0,0,0,310.77,474a11.59,11.59,0,0,0,8.6-3.61,11.75,11.75,0,0,0,3.61-8.6v-6.4H307.11V439.76h31.46v22a27.8,27.8,0,0,1-55.6,0Z"/><path class="cls-1" d="M367.38,407.22v65.07h25.86v15.59H351.78V407.22Z"/><path class="cls-1" d="M404.08,407.22h15.65v80.66H404.08Z"/><path class="cls-1" d="M491.72,407.22v80.66H476.61L454.08,443v44.9h-15.6V407.22h15.11l22.48,44.9v-44.9Z"/><path class="cls-1" d="M507.67,433.36a27.93,27.93,0,0,1,27.81-27.81q16,0,24.73,15.06l-13.5,7.8q-4.25-7.2-11.23-7.21a12.21,12.21,0,0,0-12.21,12.16v28.39A12.31,12.31,0,0,0,535.48,474a11.62,11.62,0,0,0,8.6-3.61,11.74,11.74,0,0,0,3.6-8.6v-6.4H531.82V439.76h31.46v22a27.81,27.81,0,0,1-55.61,0Z"/><path class="cls-1" d="M619,407.22v65.07h25.87v15.59H603.41V407.22Z"/><path class="cls-1" d="M655.71,407.22h15.65v80.66H655.71Z"/><path class="cls-1" d="M743.35,407.22v80.66H728.24L705.7,443v44.9H690.11V407.22h15.11l22.48,44.9v-44.9Z"/><path class="cls-1" d="M803.56,407.22v15.6H777.69v16.94h19.84v15.59H777.69v16.94h25.87v15.59H762.1V407.22Z"/><path class="cls-1" d="M819,411.68a23.73,23.73,0,0,1,16.3-6.13q14.25,0,22,13.5l-13.5,7.8q-3.23-5.7-8.55-5.7a8.77,8.77,0,0,0-5.32,1.61,5.7,5.7,0,0,0-2.48,4.79q0,3.66,3.6,7.2a72.43,72.43,0,0,0,8.5,6.35c1.47,1,2.58,1.77,3.34,2.31,1.29.9,2.42,1.72,3.38,2.48a41.29,41.29,0,0,1,6.13,5.64,24,24,0,0,1,6.19,16.24,20.08,20.08,0,0,1-7.15,15.6,23.46,23.46,0,0,1-16.19,6.18q-14.31,0-22.16-13.55l13.5-7.8q3.29,5.76,8.66,5.76a8.66,8.66,0,0,0,5.27-1.62,5.71,5.71,0,0,0,2.47-4.84q0-3.6-3.65-7.15A61.22,61.22,0,0,0,831,454l-1.66-1.19-1.72-1.13c-1.26-.89-2.37-1.72-3.34-2.47a46.06,46.06,0,0,1-6.13-5.65,24.14,24.14,0,0,1-6.18-16.24A20.29,20.29,0,0,1,819,411.68Z"/><rect class="cls-1" x="141.07" y="516.14" width="717.86" height="12.88" rx="2.98"/></svg>